<?xml version="1.0" encoding="UTF-8" standalone="no"?>
<!-- This is a Stata 16.1 generated SVG file (http://www.stata.com) -->

<svg version="1.1" width="5.50in" height="4.00in" viewBox="0 0 3960 2880" xmlns="http://www.w3.org/2000/svg" xmlns:xlink="http://www.w3.org/1999/xlink">
	<desc>Stata Graph - Graph</desc>
	<rect x="0" y="0" width="3960" height="2880" style="fill:#EAF2F3;stroke:none"/>
	<rect x="0.00" y="0.00" width="3959.88" height="2880.00" style="fill:#FFFFFF"/>
	<rect x="2.88" y="2.88" width="3954.12" height="2874.24" style="fill:none;stroke:#FFFFFF;stroke-width:5.76"/>
	<rect x="390.80" y="275.35" width="3468.22" height="2213.83" style="fill:#FFFFFF"/>
	<rect x="393.68" y="278.23" width="3462.46" height="2208.07" style="fill:none;stroke:#FFFFFF;stroke-width:5.76"/>
	<line x1="390.80" y1="2314.69" x2="3859.02" y2="2314.69" style="stroke:#EAF2F3;stroke-width:8.64"/>
	<line x1="390.80" y1="1919.55" x2="3859.02" y2="1919.55" style="stroke:#EAF2F3;stroke-width:8.64"/>
	<line x1="390.80" y1="1524.28" x2="3859.02" y2="1524.28" style="stroke:#EAF2F3;stroke-width:8.64"/>
	<line x1="390.80" y1="1129.13" x2="3859.02" y2="1129.13" style="stroke:#EAF2F3;stroke-width:8.64"/>
	<line x1="390.80" y1="733.86" x2="3859.02" y2="733.86" style="stroke:#EAF2F3;stroke-width:8.64"/>
	<line x1="390.80" y1="338.71" x2="3859.02" y2="338.71" style="stroke:#EAF2F3;stroke-width:8.64"/>
	<circle cx="454.04" cy="2425.95" r="35.02" style="fill:none;stroke:#1A476F;stroke-width:8.64"/>
	<circle cx="790.51" cy="2245.02" r="35.02" style="fill:none;stroke:#1A476F;stroke-width:8.64"/>
	<circle cx="1067.96" cy="2007.04" r="35.02" style="fill:none;stroke:#1A476F;stroke-width:8.64"/>
	<circle cx="1296.28" cy="2241.31" r="35.02" style="fill:none;stroke:#1A476F;stroke-width:8.64"/>
	<circle cx="1473.86" cy="1310.43" r="35.02" style="fill:none;stroke:#1A476F;stroke-width:8.64"/>
	<circle cx="1678.55" cy="1407.33" r="35.02" style="fill:none;stroke:#1A476F;stroke-width:8.64"/>
	<circle cx="1916.27" cy="1451.88" r="35.02" style="fill:none;stroke:#1A476F;stroke-width:8.64"/>
	<circle cx="2190.99" cy="828.28" r="35.02" style="fill:none;stroke:#1A476F;stroke-width:8.64"/>
	<circle cx="2648.25" cy="420.89" r="35.02" style="fill:none;stroke:#1A476F;stroke-width:8.64"/>
	<circle cx="3795.66" cy="572.49" r="35.02" style="fill:none;stroke:#1A476F;stroke-width:8.64"/>
	<line x1="390.80" y1="2489.19" x2="390.80" y2="275.35" style="stroke:#000000;stroke-width:5.76"/>
	<line x1="390.80" y1="2314.69" x2="350.83" y2="2314.69" style="stroke:#000000;stroke-width:5.76"/>
	<text x="300.72" y="2314.69" style="font-family:'Helvetica';font-size:99.99px;fill:#000000" transform="rotate(-90 300.72,2314.69)" text-anchor="middle">70</text>
	<line x1="390.80" y1="1919.55" x2="350.83" y2="1919.55" style="stroke:#000000;stroke-width:5.76"/>
	<text x="300.72" y="1919.55" style="font-family:'Helvetica';font-size:99.99px;fill:#000000" transform="rotate(-90 300.72,1919.55)" text-anchor="middle">75</text>
	<line x1="390.80" y1="1524.28" x2="350.83" y2="1524.28" style="stroke:#000000;stroke-width:5.76"/>
	<text x="300.72" y="1524.28" style="font-family:'Helvetica';font-size:99.99px;fill:#000000" transform="rotate(-90 300.72,1524.28)" text-anchor="middle">80</text>
	<line x1="390.80" y1="1129.13" x2="350.83" y2="1129.13" style="stroke:#000000;stroke-width:5.76"/>
	<text x="300.72" y="1129.13" style="font-family:'Helvetica';font-size:99.99px;fill:#000000" transform="rotate(-90 300.72,1129.13)" text-anchor="middle">85</text>
	<line x1="390.80" y1="733.86" x2="350.83" y2="733.86" style="stroke:#000000;stroke-width:5.76"/>
	<text x="300.72" y="733.86" style="font-family:'Helvetica';font-size:99.99px;fill:#000000" transform="rotate(-90 300.72,733.86)" text-anchor="middle">90</text>
	<line x1="390.80" y1="338.71" x2="350.83" y2="338.71" style="stroke:#000000;stroke-width:5.76"/>
	<text x="300.72" y="338.71" style="font-family:'Helvetica';font-size:99.99px;fill:#000000" transform="rotate(-90 300.72,338.71)" text-anchor="middle">95</text>
	<text x="190.71" y="1382.33" style="font-family:'Helvetica';font-size:99.99px;fill:#000000" transform="rotate(-90 190.71,1382.33)" text-anchor="middle">Prescriptions Per 100 People</text>
	<line x1="390.80" y1="2489.19" x2="3859.02" y2="2489.19" style="stroke:#000000;stroke-width:5.76"/>
	<line x1="582.00" y1="2489.19" x2="582.00" y2="2529.16" style="stroke:#000000;stroke-width:5.76"/>
	<text x="582.00" y="2619.14" style="font-family:'Helvetica';font-size:99.99px;fill:#000000" text-anchor="middle">3</text>
	<line x1="1175.62" y1="2489.19" x2="1175.62" y2="2529.16" style="stroke:#000000;stroke-width:5.76"/>
	<text x="1175.62" y="2619.14" style="font-family:'Helvetica';font-size:99.99px;fill:#000000" text-anchor="middle">4</text>
	<line x1="1769.25" y1="2489.19" x2="1769.25" y2="2529.16" style="stroke:#000000;stroke-width:5.76"/>
	<text x="1769.25" y="2619.14" style="font-family:'Helvetica';font-size:99.99px;fill:#000000" text-anchor="middle">5</text>
	<line x1="2363.01" y1="2489.19" x2="2363.01" y2="2529.16" style="stroke:#000000;stroke-width:5.76"/>
	<text x="2363.01" y="2619.14" style="font-family:'Helvetica';font-size:99.99px;fill:#000000" text-anchor="middle">6</text>
	<line x1="2956.64" y1="2489.19" x2="2956.64" y2="2529.16" style="stroke:#000000;stroke-width:5.76"/>
	<text x="2956.64" y="2619.14" style="font-family:'Helvetica';font-size:99.99px;fill:#000000" text-anchor="middle">7</text>
	<line x1="3550.26" y1="2489.19" x2="3550.26" y2="2529.16" style="stroke:#000000;stroke-width:5.76"/>
	<text x="3550.26" y="2619.14" style="font-family:'Helvetica';font-size:99.99px;fill:#000000" text-anchor="middle">8</text>
	<text x="2124.91" y="2729.16" style="font-family:'Helvetica';font-size:99.99px;fill:#000000" text-anchor="middle">Unemployment Rate</text>
	<text x="2124.91" y="215.98" style="font-family:'Helvetica';font-size:139.96px;fill:#1E2D53" text-anchor="middle">Relationship Between Unemployment and Opioids</text>
</svg>
